<svg xmlns="http://www.w3.org/2000/svg" xmlns:xlink="http://www.w3.org/1999/xlink" viewBox="0,0,256,256" width="144px" height="144px" fill-rule="nonzero"><g fill="none" fill-rule="nonzero" stroke="none" stroke-width="none" stroke-linecap="none" stroke-linejoin="miter" stroke-miterlimit="10" stroke-dasharray="" stroke-dashoffset="0" font-family="none" font-weight="none" font-size="none" text-anchor="none" style="mix-blend-mode: normal"><g transform="scale(5.33333,5.33333)"><circle cx="28" cy="28" r="9.5" fill="#facc15" stroke="none" stroke-width="1" stroke-linecap="butt"></circle><path d="M24,5.5v3" fill="none" stroke="#020202" stroke-width="3" stroke-linecap="round"></path><path d="M10.9,10.9l2.1,2.1" fill="none" stroke="#020202" stroke-width="3" stroke-linecap="round"></path><path d="M5.5,24h3" fill="none" stroke="#020202" stroke-width="3" stroke-linecap="round"></path><path d="M10.9,37.1l2.1,-2.1" fill="none" stroke="#020202" stroke-width="3" stroke-linecap="round"></path><path d="M24,42.5v-3" fill="none" stroke="#020202" stroke-width="3" stroke-linecap="round"></path><path d="M37.1,37.1l-2.1,-2.1" fill="none" stroke="#020202" stroke-width="3" stroke-linecap="round"></path><path d="M42.5,24h-3" fill="none" stroke="#020202" stroke-width="3" stroke-linecap="round"></path><path d="M37.1,10.9l-2.1,2.1" fill="none" stroke="#020202" stroke-width="3" stroke-linecap="round"></path><path d="M26.9,33.1c-0.9,0.2 -1.9,0.4 -2.9,0.4c-5.2,0 -9.5,-4.3 -9.5,-9.5c0,-1.1 0.2,-2.2 0.6,-3.2" fill="none" stroke="#020202" stroke-width="3" stroke-linecap="round"></path><path d="M20.2,15.3c1.2,-0.5 2.4,-0.8 3.8,-0.8c5.2,0 9.5,4.3 9.5,9.5c0,1.1 -0.2,2.2 -0.5,3.1" fill="none" stroke="#020202" stroke-width="3" stroke-linecap="round"></path></g></g></svg>